<svg width="32" height="37" viewBox="0 0 32 37" fill="none" xmlns="http://www.w3.org/2000/svg">
<g opacity="0.5">
<path d="M22.9728 26.7543L16.0266 33.9336L9.08047 26.7543C8.88198 26.5562 8.61613 26.4465 8.34018 26.449C8.06423 26.4515 7.80026 26.5659 7.60513 26.7676C7.41 26.9693 7.29931 27.2421 7.29691 27.5273C7.29452 27.8125 7.4006 28.0873 7.59231 28.2924L14.7342 35.6751C15.0762 36.0277 15.5394 36.2257 16.0224 36.2257C16.5054 36.2257 16.9687 36.0277 17.3106 35.6751L24.4525 28.2924C24.6256 28.0849 24.7164 27.8174 24.7069 27.5436C24.6974 27.2698 24.5884 27.0098 24.4014 26.8155C24.2145 26.6212 23.9636 26.507 23.6987 26.4957C23.4339 26.4843 23.1746 26.5767 22.9728 26.7543Z" fill="#F9F9F9"/>
<path d="M14.7409 18.8039C15.0828 19.1565 15.5461 19.3545 16.0291 19.3545C16.5121 19.3545 16.9753 19.1565 17.3173 18.8039L24.4592 11.4212C24.6387 11.2142 24.7348 10.9441 24.7276 10.6662C24.7205 10.3884 24.6107 10.1239 24.4208 9.92703C24.2309 9.7302 23.9753 9.61597 23.7065 9.60781C23.4376 9.59964 23.176 9.69815 22.9752 9.88311L16.0291 17.0624L9.0829 9.88311C8.98582 9.77922 8.86968 9.69635 8.74128 9.63934C8.61288 9.58233 8.47477 9.55232 8.33503 9.55107C8.19529 9.54981 8.0567 9.57733 7.92736 9.63203C7.79802 9.68672 7.68051 9.76749 7.58169 9.86963C7.48288 9.97176 7.40473 10.0932 7.35181 10.2269C7.29889 10.3606 7.27226 10.5038 7.27348 10.6483C7.27469 10.7927 7.30372 10.9354 7.35888 11.0681C7.41404 11.2008 7.49422 11.3209 7.59474 11.4212L14.7409 18.8039Z" fill="#F9F9F9"/>
</g>
</svg>
