<svg width="168" height="54" viewBox="0 0 168 54" fill="none" xmlns="http://www.w3.org/2000/svg">
<path d="M58.8999 43.7928H54.5312V38.5278L58.8999 38.5356L59.7719 39.4131V42.9153L58.8999 43.7928ZM58.5964 39.9929L58.317 39.703H55.701V42.6254H58.317L58.5964 42.3355V39.9929Z" fill="white"/>
<path d="M62.25 38.5356V39.9842V40.5786V43.7928H63.4101V40.5786V39.9842V38.5356H62.25Z" fill="white"/>
<path d="M70.2468 43.7928H66.7665L65.8945 42.9153V39.4054L66.7665 38.5356H70.2468L71.1188 39.4054V40.2829H69.9587V39.9929L69.6706 39.703H67.3427L67.0546 39.9929V42.3355L67.3427 42.6254H69.6706L69.9587 42.3355V42.0378H68.7986V40.8704H71.1188V42.9153L70.2468 43.7928Z" fill="white"/>
<path d="M73.6094 38.5356V39.9842V40.5786V43.7928H74.7695V40.5786V39.9842V38.5356H73.6094Z" fill="white"/>
<path d="M80.2233 39.703V43.7928H79.0555V39.703H77.0234V38.5356H82.2554V39.703H80.2233Z" fill="white"/>
<path d="M88.8209 43.7928H85.3329L84.4609 42.9153V41.458L84.8805 41.027L85.3329 40.5805H88.5328V39.9929L88.237 39.703H85.9168L85.6288 39.9929V40.2828H84.4609V39.4053L85.3329 38.5278H88.8209L89.6929 39.4219V42.9153L88.8209 43.7928ZM88.5328 41.7479H85.8917L85.6201 42.0378V42.3355L85.9159 42.6254H88.2361L88.5319 42.3355V41.7479H88.5328Z" fill="white"/>
<path d="M92.2266 43.7928V38.5278H93.3866V42.6254H97.4586V43.7928H92.2266Z" fill="white"/>
<path d="M105.767 38.5356H109.255L110.12 39.4131V40.2829H108.96V39.9929L108.672 39.703H106.344L106.056 39.9929V40.2829L106.344 40.5805H109.248L110.12 41.4668V42.9153L109.255 43.7928H105.767L104.895 42.9153V42.0378H106.056V42.3355L106.351 42.6332H108.679L108.959 42.3355V42.0456L108.671 41.7479H105.767L104.895 40.8782V39.4131L105.767 38.5356Z" fill="white"/>
<path d="M116.981 43.7928H113.493L112.621 42.9153V39.4131L113.493 38.5356H116.981L117.853 39.4131V42.9153L116.981 43.7928ZM116.678 39.9929L116.398 39.703H114.078L113.79 39.9929V42.3355L114.078 42.6254H116.398L116.678 42.3355V39.9929Z" fill="white"/>
<path d="M120.332 43.7928V38.5278H121.492V42.6254H125.564V43.7928H120.332Z" fill="white"/>
<path d="M132.399 43.7928H128.919L128.047 42.9231V38.5356H129.207V42.3355L129.495 42.6254H131.823L132.111 42.3355V38.5356L133.271 38.5278V39.0493V42.9241L132.399 43.7928Z" fill="white"/>
<path d="M138.966 39.703V43.7928H137.798V39.703H135.766V38.5356H140.998V39.703H138.966Z" fill="white"/>
<path d="M143.48 39.703V38.5356H144.641V39.703H143.48ZM143.48 43.7928V39.9842H144.641V43.7928H143.48Z" fill="white"/>
<path d="M151.493 43.7928H148.005L147.133 42.9153V39.4131L148.005 38.5356H151.493L152.365 39.4131V42.9153L151.493 43.7928ZM151.188 39.9929L150.909 39.703H148.589L148.301 39.9929V42.3355L148.589 42.6254H150.909L151.188 42.3355V39.9929Z" fill="white"/>
<path d="M158.908 43.7928V39.9929L158.62 39.703H156.3L156.012 39.9929V43.7928H154.844V39.4053L155.716 38.5278H159.204L160.076 39.4053V43.7928H158.908Z" fill="white"/>
<path d="M163.432 38.5356H166.92L167.784 39.4131V40.2829H166.624V39.9929L166.336 39.703H164.008L163.72 39.9929V40.2829L164.008 40.5805H166.912L167.784 41.4668V42.9153L166.92 43.7928H163.432L162.56 42.9153V42.0378H163.72V42.3355L164.015 42.6332H166.343L166.623 42.3355V42.0456L166.335 41.7479H163.431L162.559 40.8782V39.4131L163.432 38.5356Z" fill="white"/>
<path d="M70.3956 34.3518L73.5907 31.1366V27.9214H69.3399V29.0129L68.2852 30.0743H59.7547L58.699 29.0129V20.4286L59.7547 19.3673H68.2852L69.3399 20.4286V21.49H73.5907V18.2748L70.3956 15.0596H57.6443L54.4492 18.2748V31.1366L57.6443 34.3518H70.3956Z" fill="url(#paint0_linear_1_4144)"/>
<path d="M97.2222 34.3518V26.8591L95.6251 25.2519L97.2232 23.6438V18.2748L94.0281 15.0596H78.0508V34.3518H82.3006V27.9214H91.8868L92.9714 29.0129L92.9415 34.3518H97.2222ZM91.8868 23.6438H82.3006V19.3673H91.8868L92.9714 20.4286V22.5825L91.8868 23.6438Z" fill="white"/>
<path d="M120.793 34.1397V30.0743H106.957L105.902 29.0129V26.8591H109.218H120.793V22.5825H108.434H105.902V20.4286L106.957 19.3673H120.793V15.0596H104.847L101.652 18.2748V31.1064L102.195 31.6522L104.847 34.3518H106.716H120.793V34.1397Z" fill="white"/>
<path d="M144.429 15.0742H125.258V19.3518H132.704V34.3363H136.983V19.3518H144.429V15.0742Z" fill="white"/>
<path d="M153.924 34.3518H168.001V34.1397V30.0743H154.165L153.11 29.0129V26.8591H156.426H168.001V22.5825H155.642H153.11V20.4286L154.165 19.3673H168.001V15.0596H152.054L148.859 18.2748V31.1064L149.402 31.6522L152.054 34.3518H153.924Z" fill="white"/>
<path d="M24.172 48.7289C25.3306 48.7289 26.2699 47.7838 26.2699 46.6179C26.2699 45.452 25.3306 44.5068 24.172 44.5068C23.0134 44.5068 22.0742 45.452 22.0742 46.6179C22.0742 47.7838 23.0134 48.7289 24.172 48.7289Z" fill="url(#paint1_linear_1_4144)"/>
<path d="M7.11907 13.035L20.6786 5.15699C22.8402 3.90106 25.5026 3.90106 27.6632 5.15699L41.2227 13.035C41.2343 13.0418 41.2459 13.0496 41.2575 13.0564L48.1997 17.0898C48.2625 17.1267 48.3418 17.081 48.3418 17.0071C48.3418 14.501 47.0135 12.1847 44.8557 10.9317L27.6565 0.939756C25.4997 -0.313252 22.8421 -0.313252 20.6853 0.939756L3.48606 10.9317C1.32927 12.1847 0 14.501 0 17.0071V36.992C0 39.498 1.3283 41.8143 3.48606 43.0673L5.98702 44.5207L13.0713 48.6368L20.6853 53.0602C21.7642 53.6867 22.9678 54 24.1714 54C25.375 54 26.5786 53.6867 27.6574 53.0602L35.2715 48.6368L42.3558 44.5207L44.7156 43.15L44.8567 43.0683C46.8511 41.9096 48.3176 39.5476 48.3176 37.5562C48.3176 35.5658 46.8511 33.2028 44.8567 32.0441L44.7156 31.9624L42.3558 30.5917L35.2715 26.4756L26.274 21.2467V25.4629L38.7295 32.6979L41.2237 34.1464C41.6317 34.3838 42.0106 34.6591 42.3558 34.9665C43.1591 35.6806 44.121 36.5201 44.121 37.5552C44.121 38.5903 43.1581 39.4299 42.3558 40.1439C42.0097 40.4514 41.6317 40.7267 41.2237 40.964L38.7295 42.4126L27.6632 48.843C26.5824 49.4705 25.3769 49.7847 24.1704 49.7847C22.9639 49.7847 21.7584 49.4705 20.6776 48.843L9.61229 42.4145L7.1181 40.966C6.71014 40.7286 6.33118 40.4533 5.98605 40.1459C4.50211 38.8267 3.62624 36.9151 3.62624 34.879V19.122C3.62624 16.6111 4.95744 14.2909 7.11907 13.035Z" fill="white"/>
<path d="M13.6371 32.1647C13.6371 30.8163 13.8642 30.2307 15.0234 29.5565L22.069 25.4628V21.2466L11.5653 27.3501C10.2506 28.1138 9.44141 29.7054 9.44141 31.2327V32.1637V33.0947C9.44141 34.6221 10.2515 36.0317 11.5653 36.7954L22.069 42.8989V38.5893L15.0234 34.4956C13.8642 33.8243 13.6371 33.513 13.6371 32.1647Z" fill="white"/>
<path d="M38.898 20.9112C38.898 19.3838 38.0878 17.9723 36.774 17.2086L26.2936 11.1196C24.9788 10.356 23.3596 10.356 22.0458 11.1196L11.5653 17.2086C10.2506 17.9723 9.44141 19.3838 9.44141 20.9112V22.2196C9.44141 22.458 9.69759 22.6068 9.90254 22.4882L14.9557 19.5521C14.9789 19.5385 15.0002 19.523 15.0234 19.5093L22.2961 15.2834C23.4553 14.6102 24.8841 14.6102 26.0432 15.2834L33.316 19.5093C34.4751 20.1825 35.1896 21.4278 35.1896 22.7742V25.0418L38.898 27.1976V20.9112Z" fill="url(#paint2_linear_1_4144)"/>
<path d="M35.1123 31.9858C35.0234 32.4197 34.8591 32.8322 34.6309 33.2048C34.3099 33.7282 33.8643 34.1737 33.3171 34.4919L30.9225 35.883L26.2734 38.5846V42.8942L29.1166 41.2423L34.6309 38.0388L36.7751 36.7926C37.7892 36.204 38.4998 35.2283 38.7724 34.1125L35.1123 31.9858Z" fill="url(#paint3_linear_1_4144)"/>
<defs>
<linearGradient id="paint0_linear_1_4144" x1="54.4492" y1="24.7056" x2="73.5905" y2="24.7056" gradientUnits="userSpaceOnUse">
<stop stop-color="#F29B00"/>
<stop offset="0.3393" stop-color="#F19800"/>
<stop offset="0.5705" stop-color="#EE8F00"/>
<stop offset="0.7694" stop-color="#E88000"/>
<stop offset="0.9492" stop-color="#E16B00"/>
<stop offset="1" stop-color="#DE6300"/>
</linearGradient>
<linearGradient id="paint1_linear_1_4144" x1="2.57078" y1="15.1126" x2="50.8953" y2="84.7151" gradientUnits="userSpaceOnUse">
<stop stop-color="#F29B00"/>
<stop offset="1" stop-color="#DE6300"/>
</linearGradient>
<linearGradient id="paint2_linear_1_4144" x1="14.4924" y1="6.8343" x2="62.8168" y2="76.4367" gradientUnits="userSpaceOnUse">
<stop stop-color="#F29B00"/>
<stop offset="1" stop-color="#DE6300"/>
</linearGradient>
<linearGradient id="paint3_linear_1_4144" x1="11.9979" y1="8.5669" x2="60.3223" y2="78.1693" gradientUnits="userSpaceOnUse">
<stop stop-color="#F29B00"/>
<stop offset="1" stop-color="#DE6300"/>
</linearGradient>
</defs>
</svg>
